<svg width="22" height="20" viewBox="0 0 22 20" fill="none" xmlns="http://www.w3.org/2000/svg">
<path d="M20.9455 0.765297C20.7299 0.586571 20.4699 0.469525 20.1932 0.426568C19.9164 0.383611 19.6332 0.416344 19.3735 0.521297L1.45651 7.7543C1.16698 7.87328 0.920486 8.0775 0.749747 8.33986C0.579008 8.60221 0.492101 8.9103 0.500564 9.22321C0.509027 9.53611 0.612459 9.83905 0.797129 10.0918C0.9818 10.3445 1.23897 10.5351 1.53451 10.6383L5.40051 11.9803L7.49551 18.9063C7.49951 18.9203 7.51251 18.9293 7.51851 18.9423C7.5401 18.9976 7.57162 19.0484 7.61151 19.0923C7.67213 19.16 7.75037 19.2095 7.83751 19.2353C7.84751 19.2393 7.85451 19.2483 7.86451 19.2503H7.87051L7.87351 19.2513C7.95087 19.2679 8.03127 19.2638 8.10651 19.2393C8.11451 19.2373 8.12251 19.2373 8.13151 19.2343C8.20376 19.2089 8.26914 19.1672 8.32251 19.1123C8.32851 19.1053 8.33851 19.1043 8.34451 19.0983L11.3575 15.7723L15.7545 19.1773C16.0215 19.3863 16.3505 19.4993 16.6895 19.4993C17.4235 19.4993 18.0565 18.9853 18.2075 18.2683L21.4695 2.2503C21.5248 1.97837 21.5053 1.69653 21.413 1.43482C21.3208 1.17312 21.1592 0.94137 20.9455 0.764297M8.58851 13.2953L7.88151 16.7323L6.40651 11.8543L13.7215 8.0443L8.72451 13.0423C8.65531 13.1114 8.60801 13.1994 8.58851 13.2953ZM17.2275 18.0673C17.2087 18.158 17.167 18.2423 17.1062 18.3122C17.0454 18.3821 16.9677 18.4351 16.8805 18.4663C16.7954 18.499 16.7033 18.5091 16.6132 18.4954C16.5231 18.4817 16.438 18.4448 16.3665 18.3883L11.6035 14.6993C11.5039 14.6224 11.3791 14.5859 11.2538 14.597C11.1285 14.6082 11.012 14.6661 10.9275 14.7593L8.83051 17.0703L9.53651 13.6433L16.7255 6.4533C16.8097 6.36883 16.8609 6.25705 16.8699 6.13814C16.879 6.01922 16.8452 5.901 16.7747 5.8048C16.7042 5.7086 16.6017 5.64077 16.4855 5.61354C16.3694 5.5863 16.2474 5.60147 16.1415 5.6563L5.77851 11.0543L1.86151 9.6923C1.75765 9.658 1.66707 9.59218 1.60237 9.504C1.53767 9.41582 1.50206 9.30966 1.50051 9.2003C1.49553 9.08997 1.52501 8.98082 1.58486 8.888C1.6447 8.79518 1.73196 8.72329 1.83451 8.6823L19.7485 1.4493C19.8403 1.41029 19.9412 1.39768 20.0398 1.41287C20.1383 1.42807 20.2307 1.47046 20.3065 1.5353C20.3819 1.59629 20.4388 1.67702 20.471 1.76849C20.5031 1.85997 20.5092 1.95857 20.4885 2.0533L17.2275 18.0673Z" fill="#1F2020"/>
</svg>
