<svg width="24" height="17" viewBox="0 0 24 17" fill="none" xmlns="http://www.w3.org/2000/svg">
<path d="M0.0703125 2.8125C0.0703125 1.92188 0.679688 1.57031 1.42969 1.52344L4.92188 1.54688C5.13281 1.54688 5.32031 1.6875 5.39062 1.89844C6.1875 4.47656 7.17188 6.07031 8.34375 7.875C8.41406 8.01562 8.53125 8.08594 8.64844 8.08594C8.74219 8.08594 8.83594 8.03906 8.90625 7.92188L8.97656 7.66406L9 3.60938C9 3.02344 8.71875 2.92969 8.0625 2.83594C7.80469 2.78906 7.64062 2.55469 7.64062 2.32031C7.64062 2.27344 7.64062 2.22656 7.66406 2.17969C7.99219 1.17188 9.02344 0.65625 10.4766 0.65625L11.7891 0.632812C12.8672 0.632812 13.8516 1.10156 13.8516 2.48438V7.80469C13.9453 7.875 14.0391 7.92188 14.1562 7.92188C14.3438 7.92188 14.5781 7.80469 14.7656 7.5C15.9844 5.78906 17.3672 3.75 17.5547 2.67188C17.5547 2.625 17.5781 2.60156 17.6016 2.55469C17.8594 2.03906 18.5156 1.6875 18.7969 1.59375C18.8438 1.57031 18.9141 1.54688 19.0078 1.54688H22.6406L22.875 1.57031C23.2266 1.57031 23.4844 1.80469 23.6016 2.01562C23.8125 2.34375 23.7656 2.69531 23.7891 2.83594V3C23.4375 5.13281 21 7.52344 19.9688 9.07031C19.8281 9.25781 19.7578 9.42188 19.7578 9.58594C19.7578 9.72656 19.8281 9.86719 19.9453 10.0078L23.3672 14.3203C23.5547 14.5781 23.6484 14.8828 23.6484 15.1406C23.6484 15.9141 22.9219 16.3594 22.2188 16.4297L21.8203 16.4531H18.2578C18.1875 16.4531 18.1406 16.4766 18.0703 16.4766C17.6719 16.4766 17.3438 16.2656 17.1094 16.0312C16.3594 15.1172 15.6328 14.1797 14.9062 13.2656C14.7656 13.0781 14.7188 13.0547 14.5781 12.9609C14.4141 13.6406 14.2734 14.3438 14.1094 15.0469L14.0391 15.4453C13.9219 15.8672 13.6172 16.3125 13.0547 16.4297L12.7266 16.4531H10.4297C6.375 16.4531 2.74219 10.6875 0.1875 3.49219C0.117188 3.30469 0.0703125 3.04688 0.0703125 2.8125ZM14.1562 8.88281C13.5469 8.88281 12.8672 8.53125 12.8672 7.875V2.48438C12.8672 1.85156 12.5859 1.61719 11.8125 1.61719L10.4766 1.66406C9.72656 1.66406 9.30469 1.78125 8.95312 2.01562C9.49219 2.27344 9.98438 2.625 9.98438 3.60938V7.73438C9.91406 8.55469 9.23438 9.09375 8.57812 9.09375C8.13281 9.09375 7.73438 8.83594 7.5 8.41406C6.44531 6.82031 5.55469 5.32031 4.78125 3.16406L4.57031 2.55469L1.45312 2.53125C1.03125 2.53125 1.07812 2.55469 1.07812 2.76562C1.07812 2.90625 1.10156 3.09375 1.125 3.21094L1.61719 4.52344C4.17188 11.1328 7.38281 15.4688 10.4297 15.4688H12.7734C13.1016 15.4688 13.0781 15.0703 13.1484 14.8359L13.5938 12.7734C13.6875 12.5625 13.7578 12.375 13.9219 12.2109C14.1094 12.0234 14.3203 11.9531 14.5312 11.9531C14.9766 11.9531 15.3984 12.3047 15.6797 12.6328L17.6719 15.1641C17.8359 15.4219 17.9766 15.4688 18.0703 15.4688H21.9375C22.3125 15.4688 22.6406 15.3516 22.6406 15.1172C22.6406 15.0469 22.6172 14.9531 22.5703 14.8828L19.1719 10.6406C18.8906 10.2891 18.7734 9.9375 18.7734 9.58594C18.7734 9.21094 18.9141 8.83594 19.1484 8.50781C20.1328 7.03125 22.2422 4.92188 22.7344 3.1875L22.8047 2.88281C22.7812 2.76562 22.7812 2.67188 22.7578 2.55469H19.0781C18.8438 2.64844 18.6562 2.78906 18.5156 2.97656L18.375 3.42188C17.8359 4.92188 16.3594 6.98438 15.3047 8.41406C14.9531 8.74219 14.5547 8.88281 14.1562 8.88281Z" fill="#1F2020"/>
</svg>
